<?xml version="1.0" encoding="utf-8"?>
<!-- Generator: Adobe Illustrator 15.1.0, SVG Export Plug-In . SVG Version: 6.00 Build 0)  -->
<!DOCTYPE svg PUBLIC "-//W3C//DTD SVG 1.1//EN" "http://www.w3.org/Graphics/SVG/1.1/DTD/svg11.dtd">
<svg version="1.1" id="Ebene_1" xmlns="http://www.w3.org/2000/svg" xmlns:xlink="http://www.w3.org/1999/xlink" x="0px" y="0px"
	 width="24px" height="24px" viewBox="0 0 24 24" enable-background="new 0 0 24 24" xml:space="preserve">
<path d="M20,3h-1V1h-2v2H7V1H5v2H4C2.9,3,2,3.9,2,5v16c0,1.1,0.9,2,2,2h16c1.1,0,2-0.9,2-2V5C22,3.9,21.1,3,20,3z M20,21H4V8h16V21z
	"/>
<path fill="none" d="M0,0h24v24H0V0z"/>
<path d="M16.969,15.304H12.71v4.259h-1.419v-4.259H7.031v-1.42h4.259V9.625h1.419v4.259h4.259V15.304z"/>
</svg>